<svg xmlns="http://www.w3.org/2000/svg" xmlns:xlink="http://www.w3.org/1999/xlink" id="Layer_1" x="0" y="0" version="1.1" viewBox="0 0 800 910.8" xml:space="preserve" style="enable-background:new 0 0 800 910.8"><style type="text/css">.st0{fill:#004561}.st1{fill:#39a9dc}</style><g><g><g><polygon points="205.4 356 205.4 554.8 376.9 455.2" class="st0"/><polygon points="216.5 574.2 388.2 673.5 388.2 474.7" class="st0"/><polygon points="410.6 474.7 410.6 673.5 582.4 574.2" class="st0"/><polygon points="421.7 455.2 593.4 554.8 593.4 356" class="st0"/><polygon points="205.4 593.4 205.4 792.4 376.9 692.5" class="st0"/><polygon points="216.5 811.5 388.2 910.8 388.2 712" class="st0"/><polygon points="410.6 712 410.6 910.8 582.4 811.5" class="st0"/><polygon points="421.7 692.5 593.4 792.4 593.4 593.4" class="st0"/><polygon points="216.5 99.5 388.2 198.8 388.2 0" class="st0"/><polygon points="410.6 0 410.6 198.8 582.4 99.5" class="st0"/></g><g><polygon points="0 237.3 0 436.1 171.6 336.9" class="st1"/><polygon points="11.1 455.2 183.1 554.8 183.1 356" class="st1"/><polygon points="615.7 356 615.7 555.1 788.6 455.2" class="st1"/><polygon points="626.8 336.9 800 436.1 800 237.3" class="st1"/><polygon points="0 474.7 0 673.5 171.6 574.2" class="st1"/><polygon points="11.1 692.5 183.1 792.4 183.1 593.4" class="st1"/><polygon points="615.7 593.4 615.7 792.4 788.6 692.5" class="st1"/><polygon points="11.1 218.2 183.1 317.7 183.1 118.6" class="st1"/><polygon points="205.4 118.6 205.4 317.7 376.9 218.2" class="st1"/><polygon points="216.5 336.9 388.2 436.1 388.2 237.3" class="st1"/><polygon points="410.6 237.3 410.6 436.1 582.4 336.9" class="st1"/><polygon points="421.7 218.2 593.4 317.7 593.4 118.6" class="st1"/><polygon points="615.7 118.6 615.7 317.7 788.6 218.2" class="st1"/><polygon points="626.8 574.2 800 673.5 800 474.7" class="st1"/></g></g></g></svg>