<svg xmlns="http://www.w3.org/2000/svg" id="Layer_1" data-name="Layer 1" viewBox="0 0 184.28 180.35"><defs><style>.cls-1{opacity:.98}.cls-2{fill:#ed1944}</style></defs><title>Artboard 1</title><g class="cls-1"><path d="M167.16,0h-150A17.17,17.17,0,0,0,0,17.12V57.47H41.62V50.88a9.26,9.26,0,0,1,9.26-9.26H133.4a9.26,9.26,0,0,1,9.26,9.26v6.59h41.62V17.12A17.17,17.17,0,0,0,167.16,0Z" class="cls-2"/><path d="M142.66,129.48a9.26,9.26,0,0,1-9.26,9.26H50.88a9.26,9.26,0,0,1-9.26-9.26v-6.59H0v40.35a17.17,17.17,0,0,0,17.12,17.12h150a17.17,17.17,0,0,0,17.12-17.12V122.88H142.66Z" class="cls-2"/><rect width="41.62" height="41.62" y="69.37" class="cls-2"/><rect width="41.62" height="41.62" x="142.66" y="69.37" class="cls-2"/></g></svg>